HIERARCHY
ROOT Hips
{
	OFFSET 0.000000 0.000000 0.000000
	CHANNELS 6 Xposition Yposition Zposition Xrotation Yrotation Zrotation
	JOINT LeftUpLeg_virtual
	{
		OFFSET 0.000000 0.000000 0.000000
		CHANNELS 3 Xrotation Yrotation Zrotation
		JOINT LeftUpLeg
		{
			OFFSET 10.205400 -3.823500 0.155100
			CHANNELS 3 Xrotation Yrotation Zrotation
			JOINT LeftLeg
			{
				OFFSET 0.708757 -12.982077 0.567790
				CHANNELS 3 Xrotation Yrotation Zrotation
				JOINT LeftFoot
				{
					OFFSET -0.708756 -10.717838 -2.184338
					CHANNELS 3 Xrotation Yrotation Zrotation
					JOINT LeftToeBase
					{
						OFFSET 0.108149 -7.191104 7.560241
						CHANNELS 3 Xrotation Yrotation Zrotation
						JOINT LeftToe_End
						{
							OFFSET 0.070230 0.081724 4.490308
							CHANNELS 3 Xrotation Yrotation Zrotation
							End Site
							{
								OFFSET 0 0 0
							}
						}
					}
				}
			}
		}
	}
	JOINT RightUpLeg_virtual
	{
		OFFSET 0.000000 0.000000 0.000000
		CHANNELS 3 Xrotation Yrotation Zrotation
		JOINT RightUpLeg
		{
			OFFSET -10.205400 -3.823500 0.005500
			CHANNELS 3 Xrotation Yrotation Zrotation
			JOINT RightLeg
			{
				OFFSET -0.708756 -12.982134 0.610632
				CHANNELS 3 Xrotation Yrotation Zrotation
				JOINT RightFoot
				{
					OFFSET 0.708754 -10.717769 -1.945823
					CHANNELS 3 Xrotation Yrotation Zrotation
					JOINT RightToeBase
					{
						OFFSET -0.108140 -7.191069 7.372968
						CHANNELS 3 Xrotation Yrotation Zrotation
						JOINT RightToe_End
						{
							OFFSET -0.070227 0.081735 4.479403
							CHANNELS 3 Xrotation Yrotation Zrotation
							End Site
							{
								OFFSET 0 0 0
							}
						}
					}
				}
			}
		}
	}
	JOINT Spine_virtual
	{
		OFFSET 0.000000 0.000000 0.000000
		CHANNELS 3 Xrotation Yrotation Zrotation
		JOINT Spine
		{
			OFFSET 0.000000 6.876099 0.125700
			CHANNELS 3 Xrotation Yrotation Zrotation
			JOINT Spine1
			{
				OFFSET 0.000000 5.730043 0.104720
				CHANNELS 3 Xrotation Yrotation Zrotation
				JOINT Spine1_split
				{
					OFFSET 0.000000 5.730043 0.104720
					CHANNELS 3 Xrotation Yrotation Zrotation
					JOINT Spine2
					{
						OFFSET 0.000000 5.730043 0.104720
						CHANNELS 3 Xrotation Yrotation Zrotation
						JOINT Neck_virtual
						{
							OFFSET 0.000000 0.000000 0.000000
							CHANNELS 3 Xrotation Yrotation Zrotation
							JOINT Neck
							{
								OFFSET 0.000000 10.314075 0.188496
								CHANNELS 3 Xrotation Yrotation Zrotation
								JOINT Head
								{
									OFFSET 0.000000 7.643700 -2.377400
									CHANNELS 3 Xrotation Yrotation Zrotation
									JOINT HeadTop_End
									{
										OFFSET 0.000000 43.788605 -13.619600
										CHANNELS 3 Xrotation Yrotation Zrotation
										End Site
										{
											OFFSET 0 0 0
										}
									}
								}
							}
						}
						JOINT LeftShoulder_virtual
						{
							OFFSET 0.000000 0.000000 0.000000
							CHANNELS 3 Xrotation Yrotation Zrotation
							JOINT LeftShoulder
							{
								OFFSET 2.196100 4.412489 0.087492
								CHANNELS 3 Xrotation Yrotation Zrotation
								JOINT LeftShoulder_split
								{
									OFFSET 2.196100 4.412489 0.087492
									CHANNELS 3 Xrotation Yrotation Zrotation
									JOINT LeftArm
									{
										OFFSET 8.771219 -2.981674 -0.026999
										CHANNELS 3 Xrotation Yrotation Zrotation
										JOINT LeftForeArm
										{
											OFFSET 8.512804 0.000000 -0.000000
											CHANNELS 3 Xrotation Yrotation Zrotation
											JOINT LeftHand
											{
												OFFSET 18.484802 0.000000 -0.000000
												CHANNELS 3 Xrotation Yrotation Zrotation
												End Site
												{
													OFFSET 0 0 0
												}
											}
										}
									}
								}
							}
						}
						JOINT RightShoulder_virtual
						{
							OFFSET 0.000000 0.000000 0.000000
							CHANNELS 3 Xrotation Yrotation Zrotation
							JOINT RightShoulder
							{
								OFFSET -2.196100 4.412496 0.070690
								CHANNELS 3 Xrotation Yrotation Zrotation
								JOINT RightShoulder_split
								{
									OFFSET -2.196100 4.412496 0.070690
									CHANNELS 3 Xrotation Yrotation Zrotation
									JOINT RightArm
									{
										OFFSET -8.771282 -2.981682 -0.094208
										CHANNELS 3 Xrotation Yrotation Zrotation
										JOINT RightForeArm
										{
											OFFSET -8.494598 0.000000 0.000000
											CHANNELS 3 Xrotation Yrotation Zrotation
											JOINT RightHand
											{
												OFFSET -18.483803 0.000000 0.000001
												CHANNELS 3 Xrotation Yrotation Zrotation
												End Site
												{
													OFFSET 0 0 0
												}
											}
										}
									}
								}
							}
						}
					}
				}
			}
		}
	}
}
MOTION
Frames: 7
Frame Time: 0.03333333
-0.362287 28.326254 -0.168465 0.000000 0.000000 0.000000 2.151638 -62.490043 5.385225 -34.978109 5.182246 32.173801 45.624004 -10.506324 -9.611090 -13.246498 -1.200200 -12.461434 0.526351 0.913086 0.186159 0.000000 0.000000 0.000000 1.179260 -61.039775 5.382341 -27.604688 -3.907497 -35.708721 51.545839 9.888599 -5.013264 -29.282179 -4.504417 27.236945 4.403089 -0.135295 -0.070744 0.000000 0.000000 0.000000 1.796639 -61.233643 5.108134 10.343823 0.868820 -2.188771 9.151056 -0.083294 -5.820366 0.798554 -2.996471 1.470558 0.000000 0.000000 0.000000 10.174113 0.280709 -5.794857 -18.795467 20.967170 10.544143 5.132628 29.888877 -5.865082 0.000000 0.000000 0.000000 10.979328 -0.220844 -5.499097 -6.340090 -10.835765 -4.431244 0.295482 -0.041995 -3.585606 -19.793342 8.425002 -34.019092 2.626106 -46.670549 2.309508 0.000000 0.000000 0.000000 10.097408 -0.066026 -5.395247 -4.710429 10.926048 3.933015 4.348344 2.418011 -0.659184 -34.556239 -20.804799 36.394041 -155.337777 63.305561 153.389670 0.000000 0.000000 0.000000 
-0.361372 28.322756 -0.091978 0.000000 0.000000 0.000000 2.096264 -62.475310 5.418195 -34.940519 5.267535 32.019210 45.674465 -10.422112 -9.632396 -13.348011 -1.165834 -12.342932 0.513948 0.891560 0.231961 0.000000 0.000000 0.000000 1.104811 -61.139667 5.392669 -27.578916 -3.835182 -35.953846 51.649190 9.973359 -4.958041 -29.330885 -4.570101 27.203284 4.269884 -0.081718 -0.109667 0.000000 0.000000 0.000000 1.852681 -61.264481 5.202790 10.349942 0.926428 -2.229151 9.181735 -0.038307 -5.803723 0.810477 -3.128372 1.462842 0.000000 0.000000 0.000000 10.197579 0.309234 -5.812463 -18.666122 20.836858 10.645683 5.030293 29.858022 -5.853255 0.000000 0.000000 0.000000 11.001630 -0.207341 -5.471595 -6.373078 -10.980881 -4.440416 0.174691 -0.155667 -3.544021 -19.934290 8.341384 -34.040645 2.442462 -46.497879 2.334823 0.000000 0.000000 0.000000 9.982525 -0.065875 -5.369000 -4.731545 10.908225 3.909931 4.638159 2.350774 -0.644441 -34.519626 -20.890728 36.650809 -155.274952 63.084980 153.150108 0.000000 0.000000 0.000000 
-0.322428 28.329048 0.013067 0.000000 0.000000 0.000000 2.083951 -62.396148 5.517220 -34.844377 5.363416 31.720085 45.893407 -10.395600 -9.647838 -13.622858 -1.193396 -12.072709 0.457038 0.862519 0.295945 0.000000 0.000000 0.000000 1.062235 -61.139106 5.454566 -27.338561 -3.907388 -36.397006 51.330531 10.099398 -4.912174 -29.201702 -4.632377 27.383039 4.171741 -0.060368 -0.094027 0.000000 0.000000 0.000000 1.945951 -61.264939 5.373170 10.327817 1.026999 -2.297918 9.215881 0.002397 -5.761536 0.839942 -3.162640 1.419617 0.000000 0.000000 0.000000 10.200466 0.337102 -5.804162 -18.558022 20.544562 10.738394 4.926700 29.673665 -6.060791 0.000000 0.000000 0.000000 10.986265 -0.209102 -5.423913 -6.418228 -11.141516 -4.547224 -0.017082 -0.221972 -3.564730 -20.351638 7.998210 -33.961869 2.450068 -45.925372 2.636939 0.000000 0.000000 0.000000 9.857998 -0.068694 -5.324689 -4.780878 10.886847 4.063820 4.734575 2.246884 -0.591175 -34.285897 -21.176460 37.056157 -155.542163 63.304153 152.884933 0.000000 0.000000 0.000000 
-0.251218 28.341324 0.137196 0.000000 0.000000 0.000000 2.134305 -62.295095 5.684417 -34.734227 5.454298 31.302395 46.272606 -10.406955 -9.665968 -14.037440 -1.284769 -11.666289 0.406307 0.828272 0.372009 0.000000 0.000000 0.000000 1.073214 -61.052288 5.569125 -26.959870 -4.095420 -37.000002 50.621462 10.250502 -4.857272 -28.890300 -4.685559 27.746581 4.125377 -0.064242 -0.046059 0.000000 0.000000 0.000000 2.056019 -61.234176 5.578214 10.282641 1.152036 -2.384353 9.251478 0.035461 -5.693357 0.849107 -3.125806 1.311107 0.000000 0.000000 0.000000 10.185526 0.358292 -5.765663 -18.481551 20.050546 10.845639 4.836363 29.314110 -6.481779 0.000000 0.000000 0.000000 10.937806 -0.223401 -5.349697 -6.475779 -11.291065 -4.728578 -0.323166 -0.214669 -3.592292 -20.926723 7.459065 -33.801845 2.620343 -45.132463 3.183521 0.000000 0.000000 0.000000 9.728290 -0.077940 -5.260621 -4.856777 10.874863 4.359595 4.645344 2.130485 -0.517718 -34.022607 -21.596942 37.515309 -156.023773 64.006290 152.482553 0.000000 0.000000 0.000000 
-0.158330 28.360626 0.289959 0.000000 0.000000 0.000000 2.233826 -62.194337 5.898691 -34.623759 5.549047 30.775111 46.758956 -10.408744 -9.690615 -14.565950 -1.414383 -11.128667 0.389296 0.793405 0.451731 0.000000 0.000000 0.000000 1.142192 -60.935820 5.733080 -26.516758 -4.352296 -37.705134 49.558951 10.430440 -4.780911 -28.423098 -4.713761 28.269810 4.089632 -0.088034 0.001178 0.000000 0.000000 0.000000 2.179240 -61.167144 5.785180 10.214120 1.277483 -2.476198 9.283795 0.056850 -5.597874 0.852023 -3.002405 1.200633 0.000000 0.000000 0.000000 10.160152 0.365857 -5.696666 -18.428142 19.317327 10.988654 4.765578 28.771451 -7.117481 0.000000 0.000000 0.000000 10.860376 -0.244824 -5.243179 -6.547395 -11.421435 -4.979732 -0.653315 -0.119901 -3.617177 -21.527634 6.800817 -33.598199 2.859790 -44.374510 3.895284 0.000000 0.000000 0.000000 9.600516 -0.095112 -5.178520 -4.951018 10.881124 4.759122 4.433937 2.010531 -0.364828 -33.890084 -22.021635 37.907369 -156.554561 65.201184 151.788168 0.000000 0.000000 0.000000 
-0.057244 28.390938 0.477896 0.000000 0.000000 0.000000 2.358825 -62.116623 6.130802 -34.493647 5.666763 30.155224 47.284679 -10.356266 -9.721109 -15.199780 -1.543774 -10.483319 0.410922 0.763073 0.525147 0.000000 0.000000 0.000000 1.250092 -60.840293 5.924301 -26.067123 -4.642972 -38.458702 48.208848 10.621199 -4.668280 -27.785483 -4.706726 28.921917 3.995153 -0.126386 0.024949 0.000000 0.000000 0.000000 2.317808 -61.090646 5.982120 10.122678 1.379895 -2.563620 9.310204 0.060593 -5.482487 0.898888 -2.838192 1.114166 0.000000 0.000000 0.000000 10.127415 0.356757 -5.606323 -18.382418 18.320323 11.167008 4.691072 27.995544 -7.927701 0.000000 0.000000 0.000000 10.758820 -0.269696 -5.108882 -6.632830 -11.536453 -5.303229 -0.959786 -0.049454 -3.638408 -21.995444 6.193642 -33.368152 3.116808 -43.916556 4.726936 0.000000 0.000000 0.000000 9.479255 -0.120098 -5.086526 -5.069947 10.896886 5.249194 4.207484 2.022178 -0.241436 -34.029659 -22.333279 38.102268 -156.852753 66.897591 150.558106 0.000000 0.000000 0.000000 
0.046319 28.432884 0.708229 0.000000 0.000000 0.000000 2.512067 -62.089930 6.366873 -34.304304 5.821963 29.453142 47.779004 -10.213712 -9.748766 -15.929318 -1.639379 -9.742935 0.439295 0.738990 0.590023 0.000000 0.000000 0.000000 1.415227 -60.776020 6.144099 -25.608473 -4.961954 -39.219083 46.602657 10.809754 -4.501361 -26.964224 -4.646803 29.663115 3.859676 -0.176280 0.014067 0.000000 0.000000 0.000000 2.482142 -61.024393 6.167459 10.007731 1.446498 -2.640327 9.323722 0.056000 -5.361237 0.990896 -2.647526 1.017515 0.000000 0.000000 0.000000 10.075714 0.340217 -5.512379 -18.319443 17.029794 11.362544 4.610617 26.903251 -8.866900 0.000000 0.000000 0.000000 10.639993 -0.291205 -4.967015 -6.729364 -11.640890 -5.703375 -1.249466 -0.105618 -3.656007 -22.273349 5.794506 -33.135748 3.356303 -43.903933 5.647854 0.000000 0.000000 0.000000 9.364323 -0.145769 -4.997714 -5.210418 10.935018 5.855140 4.055660 2.176515 -0.133346 -34.432654 -22.485177 38.048262 -156.572224 69.052475 148.531507 0.000000 0.000000 0.000000 
